<mxfile host="Electron" modified="2023-09-26T11:41:24.827Z" agent="Mozilla/5.0 (Windows NT 10.0; Win64; x64) AppleWebKit/537.36 (KHTML, like Gecko) draw.io/21.7.5 Chrome/114.0.5735.289 Electron/25.8.1 Safari/537.36" version="21.7.5" etag="Weesh3NNDTarLnMMpq8Y" type="device">
  <diagram name="Page-1" id="IjB7B4lOEfMEQxcNMjZF">
    <mxGraphModel dx="1416" dy="818" grid="1" gridSize="10" guides="1" tooltips="1" connect="1" arrows="1" fold="1" page="1" pageScale="1" pageWidth="827" pageHeight="1169" math="0" shadow="0">
      <root>
        <mxCell id="0" />
        <mxCell id="1" parent="0" />
        <mxCell id="GDiifOnbCZf64zUuV2Aj-7" style="rounded=0;orthogonalLoop=1;jettySize=auto;html=1;entryX=0;entryY=0.5;entryDx=0;entryDy=0;" parent="1" source="GDiifOnbCZf64zUuV2Aj-1" target="GDiifOnbCZf64zUuV2Aj-6" edge="1">
          <mxGeometry relative="1" as="geometry" />
        </mxCell>
        <mxCell id="GDiifOnbCZf64zUuV2Aj-15" style="rounded=0;orthogonalLoop=1;jettySize=auto;html=1;entryX=0;entryY=0.5;entryDx=0;entryDy=0;" parent="1" source="GDiifOnbCZf64zUuV2Aj-1" target="GDiifOnbCZf64zUuV2Aj-14" edge="1">
          <mxGeometry relative="1" as="geometry" />
        </mxCell>
        <mxCell id="GDiifOnbCZf64zUuV2Aj-17" style="rounded=0;orthogonalLoop=1;jettySize=auto;html=1;entryX=0;entryY=0.5;entryDx=0;entryDy=0;" parent="1" source="GDiifOnbCZf64zUuV2Aj-1" target="GDiifOnbCZf64zUuV2Aj-16" edge="1">
          <mxGeometry relative="1" as="geometry" />
        </mxCell>
        <mxCell id="GDiifOnbCZf64zUuV2Aj-20" style="rounded=0;orthogonalLoop=1;jettySize=auto;html=1;entryX=0;entryY=0.5;entryDx=0;entryDy=0;" parent="1" source="GDiifOnbCZf64zUuV2Aj-1" target="GDiifOnbCZf64zUuV2Aj-19" edge="1">
          <mxGeometry relative="1" as="geometry" />
        </mxCell>
        <mxCell id="GDiifOnbCZf64zUuV2Aj-26" style="rounded=0;orthogonalLoop=1;jettySize=auto;html=1;" parent="1" source="GDiifOnbCZf64zUuV2Aj-1" target="GDiifOnbCZf64zUuV2Aj-25" edge="1">
          <mxGeometry relative="1" as="geometry" />
        </mxCell>
        <mxCell id="GDiifOnbCZf64zUuV2Aj-1" value="Actor" style="shape=umlActor;verticalLabelPosition=bottom;verticalAlign=top;html=1;outlineConnect=0;" parent="1" vertex="1">
          <mxGeometry x="50" y="340" width="30" height="60" as="geometry" />
        </mxCell>
        <mxCell id="GDiifOnbCZf64zUuV2Aj-4" value="&lt;h1&gt;Sistema de estimativa de esforço de tarefas (Planning Poker)&lt;/h1&gt;&lt;p&gt;- Casos de usos levantados&lt;/p&gt;" style="text;html=1;strokeColor=none;fillColor=none;spacing=5;spacingTop=-20;whiteSpace=wrap;overflow=hidden;rounded=0;" parent="1" vertex="1">
          <mxGeometry x="20" y="20" width="770" height="80" as="geometry" />
        </mxCell>
        <mxCell id="GDiifOnbCZf64zUuV2Aj-6" value="Iniciar jogo" style="ellipse;whiteSpace=wrap;html=1;aspect=fixed;" parent="1" vertex="1">
          <mxGeometry x="190" y="140" width="80" height="80" as="geometry" />
        </mxCell>
        <mxCell id="GDiifOnbCZf64zUuV2Aj-14" value="Iniciar votação" style="ellipse;whiteSpace=wrap;html=1;aspect=fixed;" parent="1" vertex="1">
          <mxGeometry x="190" y="320" width="80" height="80" as="geometry" />
        </mxCell>
        <mxCell id="GDiifOnbCZf64zUuV2Aj-16" value="Votar" style="ellipse;whiteSpace=wrap;html=1;aspect=fixed;" parent="1" vertex="1">
          <mxGeometry x="190" y="410" width="80" height="80" as="geometry" />
        </mxCell>
        <mxCell id="GDiifOnbCZf64zUuV2Aj-19" value="Revelar Voto" style="ellipse;whiteSpace=wrap;html=1;aspect=fixed;" parent="1" vertex="1">
          <mxGeometry x="195" y="505" width="80" height="80" as="geometry" />
        </mxCell>
        <mxCell id="GDiifOnbCZf64zUuV2Aj-25" value="Adicionar participante" style="ellipse;whiteSpace=wrap;html=1;" parent="1" vertex="1">
          <mxGeometry x="185" y="230" width="90" height="80" as="geometry" />
        </mxCell>
        <mxCell id="GDiifOnbCZf64zUuV2Aj-27" value="Gerar url do jogo" style="ellipse;whiteSpace=wrap;html=1;" parent="1" vertex="1">
          <mxGeometry x="330" y="80" width="120" height="80" as="geometry" />
        </mxCell>
        <mxCell id="GDiifOnbCZf64zUuV2Aj-28" value="" style="endArrow=none;dashed=1;html=1;dashPattern=1 3;strokeWidth=2;rounded=0;entryX=0;entryY=0.5;entryDx=0;entryDy=0;exitX=1;exitY=0.5;exitDx=0;exitDy=0;" parent="1" source="GDiifOnbCZf64zUuV2Aj-6" target="GDiifOnbCZf64zUuV2Aj-27" edge="1">
          <mxGeometry width="50" height="50" relative="1" as="geometry">
            <mxPoint x="320" y="260" as="sourcePoint" />
            <mxPoint x="370" y="210" as="targetPoint" />
          </mxGeometry>
        </mxCell>
        <mxCell id="GDiifOnbCZf64zUuV2Aj-29" value="" style="endArrow=none;html=1;rounded=0;" parent="1" edge="1">
          <mxGeometry width="50" height="50" relative="1" as="geometry">
            <mxPoint x="40" y="640" as="sourcePoint" />
            <mxPoint x="800" y="640" as="targetPoint" />
          </mxGeometry>
        </mxCell>
        <mxCell id="GDiifOnbCZf64zUuV2Aj-30" value="&lt;h1&gt;Modelagem do Sistema&lt;/h1&gt;&lt;p&gt;Levantamento das interfaces existentes no front-end&lt;/p&gt;" style="text;html=1;strokeColor=none;fillColor=none;spacing=5;spacingTop=-20;whiteSpace=wrap;overflow=hidden;rounded=0;" parent="1" vertex="1">
          <mxGeometry x="40" y="650" width="710" height="70" as="geometry" />
        </mxCell>
        <mxCell id="GDiifOnbCZf64zUuV2Aj-31" value="Iniciar Jogo" style="rounded=1;whiteSpace=wrap;html=1;fillColor=#fff2cc;strokeColor=#d6b656;" parent="1" vertex="1">
          <mxGeometry x="200" y="780" width="120" height="30" as="geometry" />
        </mxCell>
        <mxCell id="GDiifOnbCZf64zUuV2Aj-35" style="edgeStyle=orthogonalEdgeStyle;rounded=0;orthogonalLoop=1;jettySize=auto;html=1;" parent="1" source="GDiifOnbCZf64zUuV2Aj-33" target="GDiifOnbCZf64zUuV2Aj-34" edge="1">
          <mxGeometry relative="1" as="geometry" />
        </mxCell>
        <mxCell id="GDiifOnbCZf64zUuV2Aj-33" value="home" style="rounded=0;whiteSpace=wrap;html=1;fillColor=#dae8fc;strokeColor=#6c8ebf;" parent="1" vertex="1">
          <mxGeometry x="40" y="730" width="120" height="30" as="geometry" />
        </mxCell>
        <mxCell id="GDiifOnbCZf64zUuV2Aj-46" style="edgeStyle=orthogonalEdgeStyle;rounded=0;orthogonalLoop=1;jettySize=auto;html=1;entryX=0;entryY=0.5;entryDx=0;entryDy=0;" parent="1" source="GDiifOnbCZf64zUuV2Aj-34" target="GDiifOnbCZf64zUuV2Aj-44" edge="1">
          <mxGeometry relative="1" as="geometry" />
        </mxCell>
        <mxCell id="GDiifOnbCZf64zUuV2Aj-34" value="Criar Jogo" style="rounded=0;whiteSpace=wrap;html=1;fillColor=#dae8fc;strokeColor=#6c8ebf;" parent="1" vertex="1">
          <mxGeometry x="200" y="730" width="120" height="30" as="geometry" />
        </mxCell>
        <mxCell id="GDiifOnbCZf64zUuV2Aj-36" value="Interface do Jogo" style="rounded=0;whiteSpace=wrap;html=1;fillColor=#dae8fc;strokeColor=#6c8ebf;" parent="1" vertex="1">
          <mxGeometry x="520" y="730" width="120" height="30" as="geometry" />
        </mxCell>
        <mxCell id="GDiifOnbCZf64zUuV2Aj-37" value="Selecionar carta&lt;br&gt;(votar)" style="rounded=1;whiteSpace=wrap;html=1;fillColor=#fff2cc;strokeColor=#d6b656;" parent="1" vertex="1">
          <mxGeometry x="520" y="780" width="120" height="50" as="geometry" />
        </mxCell>
        <mxCell id="GDiifOnbCZf64zUuV2Aj-39" value="Revelar cartas&lt;br&gt;(Revelar votos)&amp;nbsp;" style="rounded=1;whiteSpace=wrap;html=1;fillColor=#fff2cc;strokeColor=#d6b656;" parent="1" vertex="1">
          <mxGeometry x="520" y="840" width="120" height="50" as="geometry" />
        </mxCell>
        <mxCell id="GDiifOnbCZf64zUuV2Aj-47" style="edgeStyle=orthogonalEdgeStyle;rounded=0;orthogonalLoop=1;jettySize=auto;html=1;entryX=0;entryY=0.5;entryDx=0;entryDy=0;" parent="1" source="GDiifOnbCZf64zUuV2Aj-44" target="GDiifOnbCZf64zUuV2Aj-36" edge="1">
          <mxGeometry relative="1" as="geometry" />
        </mxCell>
        <mxCell id="GDiifOnbCZf64zUuV2Aj-44" value="Incluir Participante" style="rounded=0;whiteSpace=wrap;html=1;fillColor=#dae8fc;strokeColor=#6c8ebf;" parent="1" vertex="1">
          <mxGeometry x="360" y="730" width="120" height="30" as="geometry" />
        </mxCell>
        <mxCell id="GDiifOnbCZf64zUuV2Aj-45" value="Continuar" style="rounded=1;whiteSpace=wrap;html=1;fillColor=#fff2cc;strokeColor=#d6b656;" parent="1" vertex="1">
          <mxGeometry x="360" y="780" width="120" height="30" as="geometry" />
        </mxCell>
        <mxCell id="GDiifOnbCZf64zUuV2Aj-50" value="Criar Jogo" style="rounded=1;whiteSpace=wrap;html=1;fillColor=#fff2cc;strokeColor=#d6b656;" parent="1" vertex="1">
          <mxGeometry x="40" y="780" width="120" height="30" as="geometry" />
        </mxCell>
        <mxCell id="GDiifOnbCZf64zUuV2Aj-51" value="&lt;b&gt;Notas&lt;/b&gt;&lt;br&gt;&lt;br&gt;- Entrar com o nome do jogo" style="shape=note;whiteSpace=wrap;html=1;backgroundOutline=1;darkOpacity=0.05;horizontal=1;verticalAlign=top;align=left;" parent="1" vertex="1">
          <mxGeometry x="200" y="840" width="120" height="80" as="geometry" />
        </mxCell>
        <mxCell id="GDiifOnbCZf64zUuV2Aj-52" value="&lt;b&gt;Notas&lt;/b&gt;&lt;br&gt;&lt;br&gt;- Entrar com o nome do participante" style="shape=note;whiteSpace=wrap;html=1;backgroundOutline=1;darkOpacity=0.05;horizontal=1;verticalAlign=top;align=left;" parent="1" vertex="1">
          <mxGeometry x="360" y="840" width="120" height="80" as="geometry" />
        </mxCell>
        <mxCell id="GDiifOnbCZf64zUuV2Aj-54" value="&lt;b&gt;Notas&lt;/b&gt;&lt;br&gt;&lt;br&gt;- Exibir o nome do jogo&lt;br&gt;- Exibir os participantes&lt;br&gt;- Exibir as cartas para seleção do voto&lt;br&gt;- Exibir resultado da votação" style="shape=note;whiteSpace=wrap;html=1;backgroundOutline=1;darkOpacity=0.05;horizontal=1;verticalAlign=top;align=left;" parent="1" vertex="1">
          <mxGeometry x="520" y="960" width="120" height="160" as="geometry" />
        </mxCell>
        <mxCell id="GDiifOnbCZf64zUuV2Aj-55" value="Iniciar nova votação&lt;br&gt;(Iniciar votação)&amp;nbsp;" style="rounded=1;whiteSpace=wrap;html=1;fillColor=#fff2cc;strokeColor=#d6b656;" parent="1" vertex="1">
          <mxGeometry x="520" y="900" width="120" height="50" as="geometry" />
        </mxCell>
        <mxCell id="GDiifOnbCZf64zUuV2Aj-56" value="&lt;b&gt;Próximo trabalho&lt;/b&gt;&lt;br&gt;&lt;br&gt;- Modelar o back-end da aplicação&lt;br&gt;&amp;nbsp; &amp;nbsp;- Modelar as API&#39;s existente;&lt;br&gt;- Selecionar a stack de desenvolvimento&lt;br&gt;- Criar o repositório do git" style="shape=note;whiteSpace=wrap;html=1;backgroundOutline=1;darkOpacity=0.05;verticalAlign=top;align=left;" parent="1" vertex="1">
          <mxGeometry x="430" y="320" width="240" height="100" as="geometry" />
        </mxCell>
        <mxCell id="4" value="" style="edgeStyle=none;html=1;" parent="1" source="2" target="3" edge="1">
          <mxGeometry relative="1" as="geometry" />
        </mxCell>
        <mxCell id="2" value="routes" style="rounded=1;whiteSpace=wrap;html=1;" parent="1" vertex="1">
          <mxGeometry x="40" y="1190" width="120" height="60" as="geometry" />
        </mxCell>
        <mxCell id="6" value="" style="edgeStyle=none;html=1;" parent="1" source="3" target="5" edge="1">
          <mxGeometry relative="1" as="geometry" />
        </mxCell>
        <mxCell id="3" value="controllers" style="rounded=1;whiteSpace=wrap;html=1;" parent="1" vertex="1">
          <mxGeometry x="240" y="1190" width="120" height="60" as="geometry" />
        </mxCell>
        <mxCell id="8" value="" style="edgeStyle=none;html=1;" parent="1" source="5" target="7" edge="1">
          <mxGeometry relative="1" as="geometry" />
        </mxCell>
        <mxCell id="5" value="services" style="rounded=1;whiteSpace=wrap;html=1;" parent="1" vertex="1">
          <mxGeometry x="440" y="1190" width="120" height="60" as="geometry" />
        </mxCell>
        <mxCell id="7" value="entities" style="rounded=1;whiteSpace=wrap;html=1;" parent="1" vertex="1">
          <mxGeometry x="640" y="1190" width="120" height="60" as="geometry" />
        </mxCell>
        <mxCell id="VniBVLpLLMvRiirfbQCn-19" value="POST /games" style="rounded=0;orthogonalLoop=1;jettySize=auto;html=1;entryX=0;entryY=0.5;entryDx=0;entryDy=0;exitX=1;exitY=0.5;exitDx=0;exitDy=0;" edge="1" parent="1" target="VniBVLpLLMvRiirfbQCn-18">
          <mxGeometry relative="1" as="geometry">
            <mxPoint x="30" y="1500" as="sourcePoint" />
          </mxGeometry>
        </mxCell>
        <mxCell id="VniBVLpLLMvRiirfbQCn-27" style="edgeStyle=orthogonalEdgeStyle;rounded=0;orthogonalLoop=1;jettySize=auto;html=1;" edge="1" parent="1" source="VniBVLpLLMvRiirfbQCn-23" target="VniBVLpLLMvRiirfbQCn-24">
          <mxGeometry relative="1" as="geometry" />
        </mxCell>
        <mxCell id="VniBVLpLLMvRiirfbQCn-23" value="Home" style="rounded=1;whiteSpace=wrap;html=1;" vertex="1" parent="1">
          <mxGeometry x="100" y="1380" width="120" height="60" as="geometry" />
        </mxCell>
        <mxCell id="VniBVLpLLMvRiirfbQCn-28" style="edgeStyle=orthogonalEdgeStyle;rounded=0;orthogonalLoop=1;jettySize=auto;html=1;" edge="1" parent="1" source="VniBVLpLLMvRiirfbQCn-24" target="VniBVLpLLMvRiirfbQCn-26">
          <mxGeometry relative="1" as="geometry" />
        </mxCell>
        <mxCell id="VniBVLpLLMvRiirfbQCn-31" value="" style="edgeStyle=orthogonalEdgeStyle;rounded=0;orthogonalLoop=1;jettySize=auto;html=1;" edge="1" parent="1" source="VniBVLpLLMvRiirfbQCn-24" target="VniBVLpLLMvRiirfbQCn-30">
          <mxGeometry relative="1" as="geometry" />
        </mxCell>
        <mxCell id="VniBVLpLLMvRiirfbQCn-24" value="Games" style="rounded=1;whiteSpace=wrap;html=1;" vertex="1" parent="1">
          <mxGeometry x="100" y="1480" width="120" height="60" as="geometry" />
        </mxCell>
        <mxCell id="VniBVLpLLMvRiirfbQCn-37" style="edgeStyle=orthogonalEdgeStyle;rounded=0;orthogonalLoop=1;jettySize=auto;html=1;exitX=0.5;exitY=1;exitDx=0;exitDy=0;" edge="1" parent="1" source="VniBVLpLLMvRiirfbQCn-25">
          <mxGeometry relative="1" as="geometry">
            <mxPoint x="340" y="1740" as="targetPoint" />
            <Array as="points">
              <mxPoint x="460" y="1740" />
            </Array>
          </mxGeometry>
        </mxCell>
        <mxCell id="VniBVLpLLMvRiirfbQCn-25" value="Add User" style="whiteSpace=wrap;html=1;rounded=1;" vertex="1" parent="1">
          <mxGeometry x="400" y="1620" width="120" height="60" as="geometry" />
        </mxCell>
        <mxCell id="VniBVLpLLMvRiirfbQCn-26" value="create game" style="rounded=1;whiteSpace=wrap;html=1;" vertex="1" parent="1">
          <mxGeometry x="400" y="1480" width="120" height="60" as="geometry" />
        </mxCell>
        <mxCell id="VniBVLpLLMvRiirfbQCn-32" style="edgeStyle=orthogonalEdgeStyle;rounded=0;orthogonalLoop=1;jettySize=auto;html=1;" edge="1" parent="1" source="VniBVLpLLMvRiirfbQCn-30" target="VniBVLpLLMvRiirfbQCn-25">
          <mxGeometry relative="1" as="geometry" />
        </mxCell>
        <mxCell id="VniBVLpLLMvRiirfbQCn-40" value="No" style="edgeLabel;html=1;align=center;verticalAlign=middle;resizable=0;points=[];" vertex="1" connectable="0" parent="VniBVLpLLMvRiirfbQCn-32">
          <mxGeometry x="-0.63" relative="1" as="geometry">
            <mxPoint as="offset" />
          </mxGeometry>
        </mxCell>
        <mxCell id="VniBVLpLLMvRiirfbQCn-35" value="" style="edgeStyle=orthogonalEdgeStyle;rounded=0;orthogonalLoop=1;jettySize=auto;html=1;entryX=0.25;entryY=0;entryDx=0;entryDy=0;exitX=0.5;exitY=1;exitDx=0;exitDy=0;" edge="1" parent="1" source="VniBVLpLLMvRiirfbQCn-30" target="VniBVLpLLMvRiirfbQCn-34">
          <mxGeometry relative="1" as="geometry" />
        </mxCell>
        <mxCell id="VniBVLpLLMvRiirfbQCn-36" value="Sim" style="edgeLabel;html=1;align=center;verticalAlign=middle;resizable=0;points=[];" vertex="1" connectable="0" parent="VniBVLpLLMvRiirfbQCn-35">
          <mxGeometry x="-0.5312" y="-2" relative="1" as="geometry">
            <mxPoint as="offset" />
          </mxGeometry>
        </mxCell>
        <mxCell id="VniBVLpLLMvRiirfbQCn-30" value="has user?" style="rhombus;whiteSpace=wrap;html=1;rounded=1;" vertex="1" parent="1">
          <mxGeometry x="120" y="1610" width="80" height="80" as="geometry" />
        </mxCell>
        <mxCell id="VniBVLpLLMvRiirfbQCn-43" style="edgeStyle=orthogonalEdgeStyle;rounded=0;orthogonalLoop=1;jettySize=auto;html=1;entryX=0.4;entryY=0.1;entryDx=0;entryDy=0;entryPerimeter=0;" edge="1" parent="1" source="VniBVLpLLMvRiirfbQCn-34" target="VniBVLpLLMvRiirfbQCn-42">
          <mxGeometry relative="1" as="geometry" />
        </mxCell>
        <mxCell id="VniBVLpLLMvRiirfbQCn-34" value="Game Board" style="whiteSpace=wrap;html=1;rounded=1;" vertex="1" parent="1">
          <mxGeometry x="130" y="1830" width="120" height="60" as="geometry" />
        </mxCell>
        <mxCell id="VniBVLpLLMvRiirfbQCn-41" style="edgeStyle=orthogonalEdgeStyle;rounded=0;orthogonalLoop=1;jettySize=auto;html=1;entryX=0.75;entryY=0;entryDx=0;entryDy=0;" edge="1" parent="1" source="VniBVLpLLMvRiirfbQCn-38" target="VniBVLpLLMvRiirfbQCn-34">
          <mxGeometry relative="1" as="geometry" />
        </mxCell>
        <mxCell id="VniBVLpLLMvRiirfbQCn-38" value="enter-user" style="ellipse;shape=cloud;whiteSpace=wrap;html=1;" vertex="1" parent="1">
          <mxGeometry x="235" y="1700" width="120" height="80" as="geometry" />
        </mxCell>
        <mxCell id="VniBVLpLLMvRiirfbQCn-47" style="edgeStyle=orthogonalEdgeStyle;rounded=0;orthogonalLoop=1;jettySize=auto;html=1;" edge="1" parent="1" source="VniBVLpLLMvRiirfbQCn-42" target="VniBVLpLLMvRiirfbQCn-44">
          <mxGeometry relative="1" as="geometry" />
        </mxCell>
        <mxCell id="VniBVLpLLMvRiirfbQCn-42" value="selection-vote" style="ellipse;shape=cloud;whiteSpace=wrap;html=1;" vertex="1" parent="1">
          <mxGeometry x="334" y="1990" width="120" height="80" as="geometry" />
        </mxCell>
        <mxCell id="VniBVLpLLMvRiirfbQCn-44" value="vote" style="whiteSpace=wrap;html=1;rounded=1;" vertex="1" parent="1">
          <mxGeometry x="530" y="1880" width="120" height="60" as="geometry" />
        </mxCell>
      </root>
    </mxGraphModel>
  </diagram>
</mxfile>
